inDegrees=yes
name=ik_S51_A11_T02
DataType=double
version=3
OpenSimVersion=4.3-2021-08-27-4bc7ad9
endheader
time	pelvis_tilt	pelvis_list	pelvis_rotation	pelvis_tx	pelvis_ty	pelvis_tz	hip_flexion_r	hip_adduction_r	hip_rotation_r	knee_angle_r	knee_angle_r_beta	ankle_angle_r	subtalar_angle_r	mtp_angle_r	hip_flexion_l	hip_adduction_l	hip_rotation_l	knee_angle_l	knee_angle_l_beta	ankle_angle_l	subtalar_angle_l	mtp_angle_l	lumbar_extension	lumbar_bending	lumbar_rotation	arm_flex_r	arm_add_r	arm_rot_r	elbow_flex_r	pro_sup_r	wrist_flex_r	wrist_dev_r	arm_flex_l	arm_add_l	arm_rot_l	elbow_flex_l	pro_sup_l	wrist_flex_l	wrist_dev_l
13.4199999999998	10.70578226156167	-3.220469243914585	47.49925731862263	0	0.9399999999999999	0	44.88063245091978	-9.999999931541351	-10.00054005312376	54.12894296285099	0.9447282753259645	0	0	0	44.88063245091978	-9.999999931541351	-10.00054005312376	54.12894296285099	0.9447282753259645	0	0	0	-3.39967396927338	10.202982127664	1.695873046064597	53.42817028954352	-47.84437063463264	-0.4963244673209029	135.298883984116	-9.982658118222435	0	0	5.451618951755001	-5.32912139866109	-5.067601676139864	5.560230569164041	146.0602086003041	0	0
13.4399999999998	10.51002071050102	-3.233231047161603	47.07139658006026	0	0.9399999999999999	0	44.88197507947493	-9.999999933118463	-10.0005291279381	54.13736161424976	0.9448752085114506	0	0	0	44.88197507947493	-9.999999933118463	-10.0005291279381	54.13736161424976	0.9448752085114506	0	0	0	-3.472259683469798	10.09942008166732	2.008027118744271	41.01372011950362	-50.44464108793991	-6.573742664478662	141.4024257200572	-9.979617210465975	0	0	5.526544536192652	-5.30004578300843	-5.002067298279451	5.569868771828038	146.1413550030711	0	0
13.4599999999998	10.36975134246148	-3.263276403290055	47.19837136780459	0	0.9399999999999999	0	44.88484314800648	-9.999999937104336	-10.00050279300887	54.15193307038712	0.9451295283978575	0	0	0	44.88484314800648	-9.999999937104336	-10.00050279300887	54.15193307038712	0.9451295283978575	0	0	0	-3.39860362930769	10.03813495258316	1.867121782304608	36.89708536333929	-50.52898866880457	-9.192154529880092	143.7786849563657	-9.978902450282886	0	0	5.554563716447163	-5.312101957290187	-4.920926156116321	5.595092492681744	146.1161171670212	0	0
13.4799999999998	10.33935102786556	-3.291435151981315	47.05087202016109	0	0.9399999999999999	0	44.88496438088507	-9.999999937293962	-10.0005016053517	54.15252945856701	0.9451399373352165	0	0	0	44.88496438088507	-9.999999937293962	-10.0005016053517	54.15252945856701	0.9451399373352165	0	0	0	-3.436614543320307	10.03441340574414	2.017829359238267	32.81743888640746	-51.64262056402062	-10.93598089113752	144.0496828975174	-9.97563465887391	0	0	5.487826597778491	-5.346743830717711	-5.057128193118893	5.672571850771785	146.2385687831854	0	0
13.4999999999998	10.30058613078371	-3.315647381989741	46.92105606634979	0	0.9399999999999999	0	44.88508086292381	-9.999999937475577	-10.00050046615329	54.15310300663263	0.9451499476373801	0	0	0	44.88508086292381	-9.999999937475577	-10.00050046615329	54.15310300663263	0.9451499476373801	0	0	0	-3.464919635148525	10.0248051051212	2.152624111009759	28.8479595345974	-51.78865584406213	-13.35612619285714	145.6517817750405	-9.973857587280335	0	0	5.538480439292695	-5.346960903735215	-5.062204667782007	5.606105680228597	146.2347579292868	0	0
13.5199999999998	10.2499769641293	-3.358941905668138	46.81321043650904	0	0.9399999999999999	0	44.88516179120857	-9.999999937601329	-10.00049967618526	54.15350210692078	0.9451569132514539	0	0	0	44.88516179120857	-9.999999937601329	-10.00049967618526	54.15350210692078	0.9451569132514539	0	0	0	-3.528213795594737	10.03462919402009	2.266352095561563	25.02293454315242	-52.04748644798961	-15.51385885225447	146.6087675234281	-9.970438183409202	0	0	5.587613474645819	-5.355702064218741	-5.228729657535344	5.585178345040277	146.3877837413278	0	0
13.5399999999998	10.20325220989907	-3.382321537286857	46.72206123990448	0	0.9399999999999999	0	44.88524512698503	-9.999999937730614	-10.00049886333141	54.15391311072701	0.9451640866211108	0	0	0	44.88524512698503	-9.999999937730614	-10.00049886333141	54.15391311072701	0.9451640866211108	0	0	0	-3.574001766998899	10.05365643750806	2.393507565024945	21.44125826010448	-52.20785284641052	-17.53827429721181	147.593340815497	-9.965896063783376	0	0	5.670243085357694	-5.317764365384855	-5.193839544527873	5.507067480307651	146.2479133435676	0	0
13.5599999999998	10.15667583093893	-3.388825332102916	46.69676295949025	0	0.9399999999999999	0	44.88536525302441	-9.999999937916884	-10.00049769162958	54.15450479773668	0.945174413507571	0	0	0	44.88536525302441	-9.999999937916884	-10.00049769162958	54.15450479773668	0.945174413507571	0	0	0	-3.610427452892121	10.08099084527245	2.376722461970645	18.27711027234248	-52.18511480759504	-18.9337234985104	148.1519583213704	-9.958053671719654	0	0	5.573962209309003	-5.349094145658254	-5.555898832525959	5.484667088335184	146.3525213136808	0	0
13.5799999999998	10.10387476927344	-3.413305855675513	46.68590196864815	0	0.9399999999999999	0	44.88547717897197	-9.999999938090001	-10.00049660127011	54.15505624931003	0.9451840381531911	0	0	0	44.88547717897197	-9.999999938090001	-10.00049660127011	54.15505624931003	0.9451840381531911	0	0	0	-3.66287433208862	10.0952259981092	2.3642920906953	15.51258689655676	-51.97752010733311	-19.81498119323503	148.0842565765451	-9.943279821449625	0	0	5.577439074416255	-5.378554191926683	-5.702478882653883	5.481953088588282	146.4494928277811	0	0
13.5999999999998	10.04745162510883	-3.428136698680027	46.68073338207006	0	0.9399999999999999	0	44.88559178221027	-9.999999938266825	-10.00049548610121	54.15562099337381	0.9451938947965352	0	0	0	44.88559178221027	-9.999999938266825	-10.00049548610121	54.15562099337381	0.9451938947965352	0	0	0	-3.710590987875543	10.11903623085833	2.328977436303547	12.98378370185943	-51.66614922464805	-20.39320079688173	147.8680538081865	-9.908379773161318	0	0	5.565044359541844	-5.393905628909778	-5.835865772738058	5.482692141900779	146.5491815474801	0	0
13.6199999999998	10.03169387706071	-3.412817682220373	46.7392765592386	0	0.9399999999999999	0	44.88568064571758	-9.999999938403528	-10.00049462281447	54.15605936871878	0.9452015458896644	0	0	0	44.88568064571758	-9.999999938403528	-10.00049462281447	54.15605936871878	0.9452015458896644	0	0	0	-3.710797443258294	10.13771915672953	2.276258504890829	10.79966679909731	-50.94685944685791	-20.57508645136486	147.4706297964427	-9.760866201340052	0	0	5.474216281961895	-5.405996330539726	-5.853746058300235	5.478685460517922	146.6536394643188	0	0
13.6399999999998	9.983040923323609	-3.403850020887515	46.71536912486916	0	0.9399999999999999	0	44.88581372790218	-9.99999993860793	-10.00049333081486	54.1567155529993	0.9452129984658594	0	0	0	44.88581372790218	-9.99999993860793	-10.00049333081486	54.1567155529993	0.9452129984658594	0	0	0	-3.731099758865003	10.16398515389284	2.27412912356111	10.7309524540608	-51.46599965664586	-20.29337925728998	146.7326273493607	-9.454318524271924	0	0	5.420053122574172	-5.392800106599587	-5.859105503292107	5.496853945165411	146.6661017549799	0	0
13.6599999999998	-4.743451304900329	0.1314948640913581	63.70126318090205	0	0.9399999999999999	0	44.93337545959402	-9.999999978228109	-10.00016881104312	54.46243164502133	0.9505487508479739	0	0	0	44.93337545959402	-9.999999978228109	-10.00016881104312	54.46243164502133	0.9505487508479739	0	0	0	2.710741166431378	-3.753778810287711	-15.12409597165304	15.8163557277348	-19.37766522033656	-30.28114454375978	-9.857213443338962	152.4582149880185	0	0	5.488861286406951	-5.284284595408822	-5.780741237765148	5.526017260945455	146.6440630683757	0	0
13.6799999999998	-4.796501439675133	0.152343718666696	63.74223426758308	0	0.9399999999999999	0	44.93340594000439	-9.999999978244629	-10.0001686380865	54.46259645509981	0.9505516273264837	0	0	0	44.93340594000439	-9.999999978244629	-10.0001686380865	54.46259645509981	0.9505516273264837	0	0	0	2.704286981267237	-3.694977464711692	-15.13489347431211	14.33143174503327	-18.75605417717674	-30.25852975341933	-9.726544718744185	152.5114343749891	0	0	5.449032982788808	-5.213612666239089	-5.670874183280319	5.613301823579734	146.5934477457094	0	0
